<?xml version="1.0" encoding="utf-8"?>
<!-- Generator: Adobe Illustrator 23.0.4, SVG Export Plug-In . SVG Version: 6.00 Build 0)  -->
<svg version="1.1" id="Layer_1" xmlns="http://www.w3.org/2000/svg" xmlns:xlink="http://www.w3.org/1999/xlink" x="0px" y="0px"
	 viewBox="0 0 238.7 245" style="enable-background:new 0 0 238.7 245;" xml:space="preserve">
<style type="text/css">
	.st0{display:none;}
	.st1{display:inline;fill:url(#SVGID_1_);}
	.st2{display:inline;fill:url(#SVGID_2_);}
	.st3{display:inline;fill:url(#SVGID_3_);}
	.st4{opacity:0.6;clip-path:url(#SVGID_5_);fill:#FFFFFF;}
	.st5{clip-path:url(#SVGID_7_);}
	.st6{opacity:0.6;fill:#FFFFFF;}
	.st7{clip-path:url(#SVGID_9_);}
</style>
<g class="st0">
	
		<linearGradient id="SVGID_1_" gradientUnits="userSpaceOnUse" x1="1319.3611" y1="-395.5093" x2="1319.3611" y2="-582.0121" gradientTransform="matrix(1 0 0 -1 0 246)">
		<stop  offset="0.1426" style="stop-color:#F75A96"/>
		<stop  offset="1" style="stop-color:#DE2259"/>
	</linearGradient>
	<path class="st1" d="M1430.7,662c-2.6-24-21.3-43-45.2-46.1c-18-2.3-40.7-4.4-65-4.4c-24.8,0-48.5,2.2-67.2,4.6
		c-23.8,3.1-42.5,22.1-45.2,46c-1.5,13.5-2.7,29.4-2.7,46.5c0,17.4,1,32.6,2.3,45.2c2.5,24.4,21.6,43.8,45.9,46.6h0.1
		c3.8,0.4,6.7,3.7,6.7,7.6v29c0,7.1,7.9,11.4,13.8,7.5l54.3-34.6c5.4-3.5,11.7-5.6,18.1-5.9c14.5-0.7,27.6-1.9,38.8-3.2
		c24.2-2.9,43.1-22.2,45.7-46.4c1.3-12.1,2.2-26.6,2.2-42.9C1433.5,693,1432.3,676.1,1430.7,662z"/>
	
		<linearGradient id="SVGID_2_" gradientUnits="userSpaceOnUse" x1="1460" y1="-238.4742" x2="1460" y2="-687.2807" gradientTransform="matrix(1 0 0 -1 0 246)">
		<stop  offset="0.2501" style="stop-color:#FEF152"/>
		<stop  offset="1" style="stop-color:#FDB33C"/>
	</linearGradient>
	<circle class="st2" cx="1460" cy="607" r="241.5"/>
	
		<linearGradient id="SVGID_3_" gradientUnits="userSpaceOnUse" x1="1571" y1="-265.8503" x2="1571" y2="-740.7086" gradientTransform="matrix(1 0 0 -1 0 246)">
		<stop  offset="0.1426" style="stop-color:#2DCAF2"/>
		<stop  offset="1" style="stop-color:#037CE2"/>
	</linearGradient>
	<ellipse class="st3" cx="1571" cy="578" rx="251.5" ry="296.5"/>
</g>
<g>
	<g>
		<g>
			<defs>
				<path id="SVGID_4_" d="M230.6,55.8c-2.6-24-21.3-43-45.2-46.1c-18-2.3-40.7-4.4-65-4.4c-24.8,0-48.5,2.2-67.2,4.6
					c-23.8,3-42.5,22-45.2,45.9c-1.5,13.5-2.7,29.4-2.7,46.5c0,17.4,1,32.6,2.3,45.2c2.5,24.4,21.6,43.8,45.9,46.6h0.1
					c3.8,0.4,6.7,3.7,6.7,7.6v29.1c0,7.1,7.9,11.4,13.8,7.5l54.3-34.6c5.4-3.5,11.7-5.6,18.1-5.9c14.5-0.7,27.6-1.9,38.8-3.2
					c24.2-2.9,43.1-22.2,45.7-46.4c1.3-12.1,2.2-26.6,2.2-42.9C233.4,86.8,232.1,69.9,230.6,55.8z"/>
			</defs>
			<clipPath id="SVGID_5_">
				<use xlink:href="#SVGID_4_"  style="overflow:visible;"/>
			</clipPath>
			<ellipse class="st4" cx="119.4" cy="130.3" rx="175.5" ry="151.5"/>
		</g>
		<g>
			<defs>
				<path id="SVGID_6_" d="M230.6,55.8c-2.6-24-21.3-43-45.2-46.1c-18-2.3-40.7-4.4-65-4.4c-24.8,0-48.5,2.2-67.2,4.6
					c-23.8,3-42.5,22-45.2,45.9c-1.5,13.5-2.7,29.4-2.7,46.5c0,17.4,1,32.6,2.3,45.2c2.5,24.4,21.6,43.8,45.9,46.6h0.1
					c3.8,0.4,6.7,3.7,6.7,7.6v29.1c0,7.1,7.9,11.4,13.8,7.5l54.3-34.6c5.4-3.5,11.7-5.6,18.1-5.9c14.5-0.7,27.6-1.9,38.8-3.2
					c24.2-2.9,43.1-22.2,45.7-46.4c1.3-12.1,2.2-26.6,2.2-42.9C233.4,86.8,232.1,69.9,230.6,55.8z"/>
			</defs>
			<clipPath id="SVGID_7_">
				<use xlink:href="#SVGID_6_"  style="overflow:visible;"/>
			</clipPath>
			<g class="st5">
				<g>
					<circle class="st6" cx="246.4" cy="-21.7" r="241.5"/>
				</g>
			</g>
		</g>
		<g>
			<defs>
				<path id="SVGID_8_" d="M230.6,55.8c-2.6-24-21.3-43-45.2-46.1c-18-2.3-40.7-4.4-65-4.4c-24.8,0-48.5,2.2-67.2,4.6
					c-23.8,3-42.5,22-45.2,45.9c-1.5,13.5-2.7,29.4-2.7,46.5c0,17.4,1,32.6,2.3,45.2c2.5,24.4,21.6,43.8,45.9,46.6h0.1
					c3.8,0.4,6.7,3.7,6.7,7.6v29.1c0,7.1,7.9,11.4,13.8,7.5l54.3-34.6c5.4-3.5,11.7-5.6,18.1-5.9c14.5-0.7,27.6-1.9,38.8-3.2
					c24.2-2.9,43.1-22.2,45.7-46.4c1.3-12.1,2.2-26.6,2.2-42.9C233.4,86.8,232.1,69.9,230.6,55.8z"/>
			</defs>
			<clipPath id="SVGID_9_">
				<use xlink:href="#SVGID_8_"  style="overflow:visible;"/>
			</clipPath>
			<g class="st7">
				<g>
					<ellipse class="st6" cx="350.4" cy="-46.7" rx="251.5" ry="296.5"/>
				</g>
			</g>
		</g>
	</g>
</g>
</svg>
